<svg width="21" height="20" viewBox="0 0 21 20" fill="none" xmlns="http://www.w3.org/2000/svg">
<path d="M10.4951 6.70794e-05C10.3371 0.00217505 10.1838 0.0554654 10.057 0.152327C9.93028 0.249189 9.83661 0.384668 9.78939 0.539417L6.64012 10.8817L5.76751 8.83849V8.83698C5.1572 7.40738 3.08616 7.35236 2.40594 8.74834L2.17169 9.2306H0.760295C0.660962 9.22916 0.56234 9.24799 0.47016 9.286C0.377981 9.32401 0.294083 9.38044 0.223342 9.45201C0.1526 9.52359 0.0964269 9.60887 0.0580857 9.70291C0.0197444 9.79695 0 9.89788 0 9.99982C0 10.1018 0.0197444 10.2027 0.0580857 10.2967C0.0964269 10.3908 0.1526 10.476 0.223342 10.5476C0.294083 10.6192 0.377981 10.6756 0.47016 10.7136C0.56234 10.7516 0.660962 10.7705 0.760295 10.769H2.63434C2.77356 10.769 2.91004 10.7293 3.02847 10.6542C3.14691 10.5791 3.24262 10.4716 3.3049 10.3439L3.74706 9.43643C3.90623 9.10975 4.25128 9.11909 4.39419 9.45446L6.07058 13.3846C6.13171 13.5283 6.23416 13.6494 6.36422 13.7317C6.49428 13.814 6.64574 13.8536 6.79831 13.8451C6.95087 13.8366 7.09727 13.7804 7.21789 13.6842C7.3385 13.5879 7.42758 13.4562 7.47319 13.3065L10.0778 4.75656L11.2579 19.295C11.2719 19.4667 11.3417 19.6286 11.4562 19.7548C11.5706 19.881 11.723 19.9641 11.8889 19.9907C12.0549 20.0174 12.2247 19.9861 12.3713 19.9019C12.5178 19.8177 12.6326 19.6854 12.6971 19.5263L16.2519 10.769H18.205C18.3364 11.0025 18.5252 11.1964 18.7526 11.3315C18.9801 11.4665 19.238 11.5378 19.5008 11.5382C19.8984 11.5382 20.2797 11.3762 20.5609 11.0876C20.842 10.7991 21 10.4078 21 9.99982C21 9.5918 20.842 9.2005 20.5609 8.91199C20.2797 8.62348 19.8984 8.46139 19.5008 8.46139C19.2378 8.46161 18.9795 8.53279 18.7518 8.66781C18.5241 8.80282 18.3351 8.99691 18.2036 9.2306H15.7527C15.6046 9.23049 15.4598 9.27538 15.3366 9.3596C15.2133 9.44382 15.1171 9.56361 15.0602 9.70385L12.495 16.0198L11.252 0.704677C11.2361 0.510769 11.1492 0.330259 11.0087 0.199513C10.8682 0.0687663 10.6847 -0.00250126 10.4951 6.70794e-05Z" fill="black"/>
</svg>
