<svg width="48" height="48" viewBox="0 0 48 48" fill="none" xmlns="http://www.w3.org/2000/svg">
<path d="M44 24C44 35.044 35.044 44 24 44C12.956 44 4 35.044 4 24C4 12.956 12.956 4 24 4C35.044 4 44 12.956 44 24Z" fill="#4CAF50"/>
<path d="M24 4V24L32 28L23.157 44C23.474 44 23.683 44 24 44C35.053 44 44 35.053 44 24C44 12.947 35.053 4 24 4Z" fill="#FFC107"/>
<path d="M44 24C44 35.044 35.044 44 24 44C12.956 44 4 35.044 4 24C4 12.956 12.956 4 24 4C35.044 4 44 12.956 44 24Z" fill="#4CAF50"/>
<path d="M24 4V24L32 28L23.157 44C23.474 44 23.683 44 24 44C35.053 44 44 35.053 44 24C44 12.947 35.053 4 24 4Z" fill="#FFC107"/>
<path d="M41.84 15H24V28L21 27L7.16001 13.26H7.14001C10.68 7.69 16.91 4 24 4C31.8 4 38.55 8.48 41.84 15Z" fill="#F44336"/>
<path d="M7.15796 13.264L16.001 28.126L21 27L7.15796 13.264Z" fill="#DD2C00"/>
<path d="M23.157 44L32.091 27.941L28 25L23.157 44Z" fill="#558B2F"/>
<path d="M41.865 15H24L22.421 19.58L41.865 15Z" fill="#F9A825"/>
<path d="M33 24C33 28.969 28.969 33 24 33C19.031 33 15 28.969 15 24C15 19.031 19.031 15 24 15C28.969 15 33 19.031 33 24Z" fill="white"/>
<path d="M31 24C31 27.867 27.867 31 24 31C20.133 31 17 27.867 17 24C17 20.133 20.133 17 24 17C27.867 17 31 20.133 31 24Z" fill="#2196F3"/>
</svg>
