<svg width="42" height="30" viewBox="0 0 42 30" fill="none" xmlns="http://www.w3.org/2000/svg">
<path d="M36.5412 3.85709C35.9394 2.94812 35.0874 2.25282 34.077 1.84863C31.8833 0.969043 29.9968 0.381462 28.3089 0.0502803C27.1248 -0.181191 25.9523 0.401048 25.3888 1.49787L25.2481 1.77207C23.9982 1.63408 22.6708 1.58778 21.1591 1.62607C19.6091 1.58867 18.2773 1.63408 17.0255 1.77207L16.8858 1.49787C16.3222 0.401048 15.1479 -0.180301 13.9666 0.0511705C12.2786 0.381462 10.3912 0.969044 8.19846 1.84953C7.18889 2.25371 6.3369 2.94812 5.73418 3.85798C1.5312 10.2065 -0.115809 17.0545 0.699682 24.7946C0.728171 25.0661 0.879518 25.3091 1.1101 25.4543C4.34358 27.493 7.14171 28.8889 9.9158 29.8487C11.0758 30.2537 12.3623 29.8006 13.0469 28.7545L14.2675 26.884C13.2953 26.5172 12.3463 26.0828 11.4364 25.5638C11.01 25.3207 10.8613 24.7768 11.1043 24.3503C11.3474 23.9221 11.8913 23.7716 12.3187 24.0182C15.026 25.562 18.0867 26.3784 21.1698 26.3784C24.2528 26.3784 27.3135 25.562 30.0209 24.0182C30.4473 23.7716 30.9913 23.9221 31.2352 24.3503C31.4783 24.7768 31.3296 25.3207 30.9031 25.5638C29.963 26.1006 28.9801 26.5475 27.9732 26.9205L29.2294 28.7919C29.7467 29.562 30.6004 30 31.48 30C31.7667 30 32.056 29.9528 32.3374 29.8567C35.1195 28.8961 37.9229 27.4983 41.1635 25.4552C41.3941 25.31 41.5455 25.0661 41.574 24.7955C42.3912 17.0545 40.7442 10.2056 36.5412 3.85709ZM15.4506 19.2882C13.736 19.2882 12.3249 17.4819 12.3249 15.2864C12.3249 13.091 13.736 11.2847 15.4506 11.2847C17.1653 11.2847 18.5764 13.091 18.5764 15.2864C18.5764 17.4819 17.1653 19.2882 15.4506 19.2882ZM27.018 19.2651C25.3193 19.2651 23.9216 17.448 23.9216 15.2393C23.9216 13.0305 25.3193 11.2134 27.018 11.2134C28.7166 11.2134 30.1143 13.0305 30.1143 15.2393C30.1143 17.448 28.7166 19.2651 27.018 19.2651Z" fill="white"/>
</svg>
