<svg width="17" height="19" viewBox="0 0 17 19" fill="none" xmlns="http://www.w3.org/2000/svg">
<path d="M3.87272 0C3.67534 0 3.47718 0.075712 3.32677 0.230105L0.157749 3.73921C-0.190268 4.124 0.0752718 4.7487 0.586191 4.7487H2.94352V9.49926C2.94179 9.62516 2.96445 9.75016 3.01018 9.86699C3.05592 9.98383 3.12382 10.0902 3.20994 10.1798C3.29606 10.2695 3.39868 10.3407 3.51184 10.3893C3.625 10.4379 3.74644 10.4629 3.8691 10.4629C3.99176 10.4629 4.1132 10.4379 4.22636 10.3893C4.33952 10.3407 4.44214 10.2695 4.52826 10.1798C4.61438 10.0902 4.68228 9.98383 4.72802 9.86699C4.77375 9.75016 4.79641 9.62516 4.79468 9.49926V4.7487H7.15743C7.66928 4.7487 7.93482 4.124 7.58587 3.73921L4.41685 0.230105C4.26645 0.075712 4.0701 0 3.87272 0ZM13.1249 0.948256C12.614 0.948256 12.1993 1.37391 12.1993 1.89837C12.1993 2.42283 12.614 2.84848 13.1249 2.84848C13.6358 2.84848 14.0505 2.42283 14.0505 1.89837C14.0505 1.37391 13.6358 0.948256 13.1249 0.948256ZM13.1249 4.7487C12.614 4.7487 12.1993 5.17435 12.1993 5.69881C12.1993 6.22327 12.614 6.64892 13.1249 6.64892C13.6358 6.64892 14.0505 6.22327 14.0505 5.69881C14.0505 5.17435 13.6358 4.7487 13.1249 4.7487ZM13.1104 8.53616C12.8653 8.54009 12.6316 8.64371 12.4608 8.82427C12.29 9.00484 12.1959 9.24759 12.1993 9.49926V14.2498H9.84197C9.33105 14.2498 9.06551 14.8745 9.41353 15.2593L12.5825 18.7684C12.8834 19.0772 13.3718 19.0772 13.6726 18.7684L16.8417 15.2593C17.1906 14.8745 16.9251 14.2498 16.4132 14.2498H14.0505V9.49926C14.0522 9.37214 14.029 9.24597 13.9823 9.12821C13.9357 9.01046 13.8664 8.90351 13.7788 8.8137C13.6911 8.7239 13.5868 8.65306 13.472 8.60539C13.3572 8.55771 13.2342 8.53417 13.1104 8.53616V8.53616ZM3.8691 12.3496C3.35818 12.3496 2.94352 12.7752 2.94352 13.2997C2.94352 13.8242 3.35818 14.2498 3.8691 14.2498C4.38002 14.2498 4.79468 13.8242 4.79468 13.2997C4.79468 12.7752 4.38002 12.3496 3.8691 12.3496ZM3.8691 16.15C3.35818 16.15 2.94352 16.5757 2.94352 17.1001C2.94352 17.6246 3.35818 18.0503 3.8691 18.0503C4.38002 18.0503 4.79468 17.6246 4.79468 17.1001C4.79468 16.5757 4.38002 16.15 3.8691 16.15Z" fill="black"/>
</svg>
