<!-- <svg width="26" height="26" viewBox="0 0 26 26" fill="none" xmlns="http://www.w3.org/2000/svg">
<path d="M22.6563 7.45589C22.7266 9.29671 22.796 11.1244 22.8659 12.9541C24.1105 13.2578 24.9189 13.9738 24.9951 15.304C25.0558 16.3655 24.5506 17.1615 23.6029 17.6001C22.4039 18.1549 21.3812 17.8043 20.5374 16.814C18.6158 18.2083 16.7008 19.5981 14.7681 21.0008C15.2328 21.6312 15.3808 22.3285 15.1919 23.0856C15.0598 23.6149 14.7788 24.0571 14.3613 24.409C13.5136 25.1234 12.3134 25.1966 11.3712 24.5932C10.3362 23.9301 10.0235 22.8722 10.4342 21.3884C9.94289 21.0899 9.44719 20.7882 8.9511 20.4877C7.82081 19.8027 6.68774 19.1221 5.5626 18.4292C5.40425 18.3317 5.32487 18.3567 5.20145 18.4805C3.97947 19.7072 1.92605 19.3478 1.21009 17.788C0.552078 16.3543 1.51053 14.6628 3.09961 14.4542C3.14485 14.4482 3.19049 14.4446 3.25915 14.4379C3.32384 13.9933 3.38813 13.5499 3.45243 13.1065C3.54172 12.4908 3.62507 11.8739 3.72547 11.2597C3.75087 11.1049 3.6719 11.0707 3.56633 11.0153C2.62971 10.527 2.1102 9.76279 2.11338 8.69292C2.11774 7.29987 3.39567 6.15597 4.78195 6.26662C5.74119 6.34304 6.44683 6.80315 6.9334 7.65331C8.49271 6.80275 10.0548 5.9506 11.6221 5.09526C10.9192 3.83316 10.9541 2.63553 12.0634 1.63253C12.8468 0.924061 13.8029 0.815801 14.7439 1.28227C15.8992 1.85502 16.3393 2.84289 16.1488 4.13445C17.7196 4.52889 19.29 4.92332 20.874 5.32094C21.0776 4.88511 21.3843 4.55277 21.8463 4.39078C22.1793 4.27416 22.5162 4.26023 22.8579 4.3661C23.5306 4.57466 23.9747 5.17526 23.9827 5.88293C23.9898 6.53369 23.5469 7.233 22.6567 7.45589H22.6563ZM11.7352 13.14C11.2593 12.9023 10.7347 12.6416 10.2108 12.3785C9.00786 11.774 7.80533 11.1682 6.60241 10.5636C6.51668 10.5202 6.44445 10.4649 6.34007 10.5612C5.77334 11.0834 5.10024 11.3027 4.33547 11.2183C4.17751 11.2008 4.13584 11.2514 4.11639 11.4034C4.03742 12.0207 3.94098 12.6353 3.85366 13.2514C3.7981 13.6422 3.74691 14.0343 3.69253 14.4363C4.51922 14.568 5.16493 14.9629 5.5749 15.6932C5.98805 16.4299 5.969 17.1834 5.59713 17.9555C7.29059 18.9844 8.9765 20.0085 10.6898 21.0493C10.7073 21.0147 10.7156 20.9884 10.7319 20.9681C11.1287 20.4634 11.6463 20.1514 12.2729 20.0336C12.4126 20.0073 12.4543 19.9591 12.4686 19.825C12.621 18.3627 12.7778 16.9012 12.9385 15.4401C12.9536 15.302 12.9298 15.2355 12.7841 15.181C12.2011 14.9625 11.8312 14.5449 11.7415 13.9197C11.7066 13.6765 11.736 13.4241 11.736 13.1403L11.7352 13.14ZM20.7747 5.73846C19.2674 5.36074 17.77 4.98939 16.2758 4.6057C16.0694 4.55277 15.9773 4.58859 15.8666 4.78282C15.7218 5.03675 15.5138 5.25845 15.313 5.47577C15.1991 5.59915 15.0455 5.68592 14.8974 5.79895C16.9691 8.35063 19.0372 10.8971 21.0946 13.4309C21.3161 13.3206 21.5209 13.1957 21.7419 13.1153C21.9673 13.0333 22.2086 12.9951 22.4571 12.9342C22.3845 11.1117 22.3118 9.28637 22.2392 7.46664C21.324 7.34325 20.745 6.65628 20.7743 5.73846H20.7747ZM13.3881 6.09985C12.9032 6.03179 12.4857 5.86542 12.1372 5.57129C11.9792 5.43795 11.8745 5.44751 11.7102 5.53786C10.2834 6.32513 8.85228 7.10524 7.42155 7.88535C7.10485 8.05809 7.10286 8.05491 7.14255 8.42108C7.14454 8.44098 7.14493 8.46088 7.14652 8.48038C7.20208 9.0778 7.04691 9.6203 6.7048 10.1278C8.46295 11.0145 10.2104 11.8962 11.9638 12.7805C12.2698 12.3531 12.6777 12.1107 13.2036 12.051C13.2651 10.0637 13.3262 8.09192 13.3881 6.09906V6.09985ZM15.0133 13.7843C16.7322 14.1533 18.4372 14.5195 20.0901 14.8741C20.3132 14.461 20.518 14.0813 20.7366 13.6757C20.7283 13.6645 20.691 13.6108 20.6501 13.5603C19.3234 11.9264 17.9974 10.2918 16.6695 8.65909C15.9805 7.81212 15.288 6.96713 14.5934 6.12453C14.549 6.0704 14.4668 6.00433 14.4105 6.01149C14.216 6.03577 14.0251 6.08951 13.8207 6.13488C13.7529 8.11262 13.6846 10.0916 13.6167 12.0669C14.5383 12.3085 14.9883 12.9433 15.0133 13.7843ZM13.3707 15.288C13.1992 16.8586 13.0302 18.4109 12.8583 19.9838C13.4798 20.0384 14.016 20.2668 14.472 20.6863C16.4282 19.2654 18.3788 17.8481 20.2878 16.4614C20.2191 16.0924 20.1616 15.7561 20.0897 15.423C20.0778 15.3668 20.0112 15.2944 19.9568 15.2805C19.6758 15.2088 19.3908 15.1535 19.1071 15.0926C17.753 14.8025 16.3992 14.5111 15.0443 14.2261C14.9943 14.2158 14.8998 14.2496 14.8792 14.2902C14.5688 14.904 14.0755 15.2375 13.3707 15.288Z" fill="black" stroke="black" stroke-width="0.85"/>
</svg> -->

<svg viewBox="0 0 26 26" fill="none" xmlns="http://www.w3.org/2000/svg">
<path d="M22.6563 7.45589C22.7266 9.29671 22.796 11.1244 22.8659 12.9541C24.1105 13.2578 24.9189 13.9738 24.9951 15.304C25.0558 16.3655 24.5506 17.1615 23.6029 17.6001C22.4039 18.1549 21.3812 17.8043 20.5374 16.814C18.6158 18.2083 16.7008 19.5981 14.7681 21.0008C15.2328 21.6312 15.3808 22.3285 15.1919 23.0856C15.0598 23.6149 14.7788 24.0571 14.3613 24.409C13.5136 25.1234 12.3134 25.1966 11.3712 24.5932C10.3362 23.9301 10.0235 22.8722 10.4342 21.3884C9.94289 21.0899 9.44719 20.7882 8.9511 20.4877C7.82081 19.8027 6.68774 19.1221 5.5626 18.4292C5.40425 18.3317 5.32487 18.3567 5.20145 18.4805C3.97947 19.7072 1.92605 19.3478 1.21009 17.788C0.552078 16.3543 1.51053 14.6628 3.09961 14.4542C3.14485 14.4482 3.19049 14.4446 3.25915 14.4379C3.32384 13.9933 3.38813 13.5499 3.45243 13.1065C3.54172 12.4908 3.62507 11.8739 3.72547 11.2597C3.75087 11.1049 3.6719 11.0707 3.56633 11.0153C2.62971 10.527 2.1102 9.76279 2.11338 8.69292C2.11774 7.29987 3.39567 6.15597 4.78195 6.26662C5.74119 6.34304 6.44683 6.80315 6.9334 7.65331C8.49271 6.80275 10.0548 5.9506 11.6221 5.09526C10.9192 3.83316 10.9541 2.63553 12.0634 1.63253C12.8468 0.924061 13.8029 0.815801 14.7439 1.28227C15.8992 1.85502 16.3393 2.84289 16.1488 4.13445C17.7196 4.52889 19.29 4.92332 20.874 5.32094C21.0776 4.88511 21.3843 4.55277 21.8463 4.39078C22.1793 4.27416 22.5162 4.26023 22.8579 4.3661C23.5306 4.57466 23.9747 5.17526 23.9827 5.88293C23.9898 6.53369 23.5469 7.233 22.6567 7.45589H22.6563ZM11.7352 13.14C11.2593 12.9023 10.7347 12.6416 10.2108 12.3785C9.00786 11.774 7.80533 11.1682 6.60241 10.5636C6.51668 10.5202 6.44445 10.4649 6.34007 10.5612C5.77334 11.0834 5.10024 11.3027 4.33547 11.2183C4.17751 11.2008 4.13584 11.2514 4.11639 11.4034C4.03742 12.0207 3.94098 12.6353 3.85366 13.2514C3.7981 13.6422 3.74691 14.0343 3.69253 14.4363C4.51922 14.568 5.16493 14.9629 5.5749 15.6932C5.98805 16.4299 5.969 17.1834 5.59713 17.9555C7.29059 18.9844 8.9765 20.0085 10.6898 21.0493C10.7073 21.0147 10.7156 20.9884 10.7319 20.9681C11.1287 20.4634 11.6463 20.1514 12.2729 20.0336C12.4126 20.0073 12.4543 19.9591 12.4686 19.825C12.621 18.3627 12.7778 16.9012 12.9385 15.4401C12.9536 15.302 12.9298 15.2355 12.7841 15.181C12.2011 14.9625 11.8312 14.5449 11.7415 13.9197C11.7066 13.6765 11.736 13.4241 11.736 13.1403L11.7352 13.14ZM20.7747 5.73846C19.2674 5.36074 17.77 4.98939 16.2758 4.6057C16.0694 4.55277 15.9773 4.58859 15.8666 4.78282C15.7218 5.03675 15.5138 5.25845 15.313 5.47577C15.1991 5.59915 15.0455 5.68592 14.8974 5.79895C16.9691 8.35063 19.0372 10.8971 21.0946 13.4309C21.3161 13.3206 21.5209 13.1957 21.7419 13.1153C21.9673 13.0333 22.2086 12.9951 22.4571 12.9342C22.3845 11.1117 22.3118 9.28637 22.2392 7.46664C21.324 7.34325 20.745 6.65628 20.7743 5.73846H20.7747ZM13.3881 6.09985C12.9032 6.03179 12.4857 5.86542 12.1372 5.57129C11.9792 5.43795 11.8745 5.44751 11.7102 5.53786C10.2834 6.32513 8.85228 7.10524 7.42155 7.88535C7.10485 8.05809 7.10286 8.05491 7.14255 8.42108C7.14454 8.44098 7.14493 8.46088 7.14652 8.48038C7.20208 9.0778 7.04691 9.6203 6.7048 10.1278C8.46295 11.0145 10.2104 11.8962 11.9638 12.7805C12.2698 12.3531 12.6777 12.1107 13.2036 12.051C13.2651 10.0637 13.3262 8.09192 13.3881 6.09906V6.09985ZM15.0133 13.7843C16.7322 14.1533 18.4372 14.5195 20.0901 14.8741C20.3132 14.461 20.518 14.0813 20.7366 13.6757C20.7283 13.6645 20.691 13.6108 20.6501 13.5603C19.3234 11.9264 17.9974 10.2918 16.6695 8.65909C15.9805 7.81212 15.288 6.96713 14.5934 6.12453C14.549 6.0704 14.4668 6.00433 14.4105 6.01149C14.216 6.03577 14.0251 6.08951 13.8207 6.13488C13.7529 8.11262 13.6846 10.0916 13.6167 12.0669C14.5383 12.3085 14.9883 12.9433 15.0133 13.7843ZM13.3707 15.288C13.1992 16.8586 13.0302 18.4109 12.8583 19.9838C13.4798 20.0384 14.016 20.2668 14.472 20.6863C16.4282 19.2654 18.3788 17.8481 20.2878 16.4614C20.2191 16.0924 20.1616 15.7561 20.0897 15.423C20.0778 15.3668 20.0112 15.2944 19.9568 15.2805C19.6758 15.2088 19.3908 15.1535 19.1071 15.0926C17.753 14.8025 16.3992 14.5111 15.0443 14.2261C14.9943 14.2158 14.8998 14.2496 14.8792 14.2902C14.5688 14.904 14.0755 15.2375 13.3707 15.288Z" fill="black" stroke="black" stroke-width="0.85"/>
</svg>
