<svg width="19" height="19" viewBox="0 0 19 19" fill="none" xmlns="http://www.w3.org/2000/svg">
<path d="M1.9 0C0.86159 0 0 0.86159 0 1.9V8.55C0 9.58841 0.86159 10.45 1.9 10.45H6.65C7.68841 10.45 8.55 9.58841 8.55 8.55V1.9C8.55 0.86159 7.68841 0 6.65 0H1.9ZM12.35 0C11.3116 0 10.45 0.86159 10.45 1.9V4.75C10.45 5.78841 11.3116 6.65 12.35 6.65H17.1C18.1384 6.65 19 5.78841 19 4.75V1.9C19 0.86159 18.1384 0 17.1 0H12.35ZM1.9 1.9H6.65V8.55H1.9V1.9ZM12.35 1.9H17.1V4.75H12.35V1.9ZM12.35 8.55C11.3116 8.55 10.45 9.41159 10.45 10.45V17.1C10.45 18.1384 11.3116 19 12.35 19H17.1C18.1384 19 19 18.1384 19 17.1V10.45C19 9.41159 18.1384 8.55 17.1 8.55H12.35ZM12.35 10.45H17.1V17.1H12.35V10.45ZM1.9 12.35C0.86159 12.35 0 13.2116 0 14.25V17.1C0 18.1384 0.86159 19 1.9 19H6.65C7.68841 19 8.55 18.1384 8.55 17.1V14.25C8.55 13.2116 7.68841 12.35 6.65 12.35H1.9ZM1.9 14.25H6.65V17.1H1.9V14.25Z" fill="black"/>
</svg>
