<svg width="18" height="19" viewBox="0 0 18 19" fill="none" xmlns="http://www.w3.org/2000/svg">
<path d="M8.18186 0C7.27778 0 6.54551 0.772955 6.54551 1.72727V17.2727C6.54551 18.227 7.27778 19 8.18186 19H16.3636C17.2677 19 18 18.227 18 17.2727V1.72727C18 0.772955 17.2677 0 16.3636 0H8.18186ZM4.07819 0.851829C3.86147 0.855405 3.65496 0.949593 3.50396 1.11372C3.35296 1.27785 3.26983 1.49851 3.27279 1.72727V17.2727C3.27126 17.3872 3.29129 17.5008 3.33172 17.607C3.37215 17.7132 3.43217 17.8099 3.5083 17.8914C3.58443 17.9729 3.67514 18.0376 3.77517 18.0817C3.8752 18.1259 3.98254 18.1487 4.09097 18.1487C4.1994 18.1487 4.30675 18.1259 4.40678 18.0817C4.50681 18.0376 4.59752 17.9729 4.67365 17.8914C4.74977 17.8099 4.8098 17.7132 4.85022 17.607C4.89065 17.5008 4.91068 17.3872 4.90915 17.2727V1.72727C4.91065 1.61173 4.89017 1.49704 4.84892 1.39C4.80767 1.28296 4.74649 1.18575 4.66901 1.10411C4.59152 1.02248 4.49931 0.958093 4.39782 0.914758C4.29634 0.871423 4.18765 0.850024 4.07819 0.851829ZM0.805476 1.71547C0.588761 1.71904 0.382243 1.81323 0.231247 1.97736C0.0802511 2.14149 -0.00288595 2.36215 8.18238e-05 2.59091V16.4091C-0.00145148 16.5235 0.0185786 16.6372 0.0590078 16.7434C0.0994371 16.8496 0.159459 16.9462 0.235586 17.0277C0.311713 17.1092 0.402427 17.1739 0.502455 17.2181C0.602483 17.2623 0.709831 17.285 0.81826 17.285C0.926689 17.285 1.03404 17.2623 1.13407 17.2181C1.23409 17.1739 1.32481 17.1092 1.40093 17.0277C1.47706 16.9462 1.53708 16.8496 1.57751 16.7434C1.61794 16.6372 1.63797 16.5235 1.63644 16.4091V2.59091C1.63794 2.47536 1.61746 2.36068 1.57621 2.25364C1.53496 2.1466 1.47378 2.04938 1.3963 1.96775C1.31881 1.88612 1.2266 1.82173 1.12511 1.77839C1.02363 1.73506 0.914936 1.71366 0.805476 1.71547Z" fill="black"/>
</svg>
