<?xml version="1.0" encoding="iso-8859-1"?><!-- Generator: Adobe Illustrator 22.1.0, SVG Export Plug-In . SVG Version: 6.00 Build 0)  --><svg xmlns="http://www.w3.org/2000/svg" xmlns:xlink="http://www.w3.org/1999/xlink" viewBox="0 0 24 24" width="48px" height="48px"><g id="Sharp_3_"><path d="M12,4c-4.418,0-8,3.582-8,8s3.582,8,8,8s8-3.582,8-8S16.418,4,12,4z M12,16c-2.209,0-4-1.791-4-4c0-2.209,1.791-4,4-4s4,1.791,4,4C16,14.209,14.209,16,12,16z"/><polygon points="14.917,5 14.333,2 9.667,2 9.083,5 "/><polygon points="9.083,19 9.667,22 14.333,22 14.917,19 "/><polygon points="7.396,5.974 4.506,4.979 2.173,9.021 4.479,11.026 "/><polygon points="16.604,18.026 19.494,19.021 21.827,14.979 19.521,12.974 "/><polygon points="4.479,12.974 2.173,14.979 4.506,19.021 7.396,18.026 "/><polygon points="19.521,11.026 21.827,9.021 19.494,4.979 16.604,5.974 "/></g></svg>