<svg width="31" height="30" viewBox="0 0 31 30" fill="none" xmlns="http://www.w3.org/2000/svg">
<path d="M15.7769 0C24.0609 0 30.7769 6.71591 30.7769 15C30.7769 23.2841 24.0609 30 15.7769 30C7.49276 30 0.776855 23.2841 0.776855 15C0.776855 6.71591 7.49276 0 15.7769 0ZM20.9512 21.1145C21.2266 20.2684 22.52 11.8316 22.6789 10.1686C22.7273 9.66545 22.5678 9.33068 22.2569 9.18068C21.8798 9 21.3221 9.09 20.6737 9.32386C19.7853 9.64432 8.42958 14.4655 7.77367 14.745C7.15185 15.0095 6.56345 15.2973 6.56345 15.7152C6.56345 16.0091 6.73799 16.1741 7.21799 16.3452C7.71708 16.5232 8.97504 16.9043 9.7189 17.1095C10.4348 17.3073 11.2482 17.1355 11.705 16.8518C12.1884 16.5511 17.7739 12.8148 18.1741 12.4868C18.5744 12.1595 18.8941 12.5789 18.5669 12.9068C18.2396 13.2341 14.4064 16.9548 13.9005 17.4702C13.2862 18.0955 13.7219 18.7439 14.1344 19.0036C14.6041 19.3002 17.9859 21.568 18.4953 21.932C19.0046 22.2961 19.5207 22.4611 19.9939 22.4611C20.4671 22.4605 20.7159 21.8373 20.9512 21.1145Z" fill="white"/>
</svg>
