<?xml version="1.0" encoding="iso-8859-1"?><!-- Generator: Adobe Illustrator 22.1.0, SVG Export Plug-In . SVG Version: 6.00 Build 0)  --><svg xmlns="http://www.w3.org/2000/svg" xmlns:xlink="http://www.w3.org/1999/xlink" viewBox="0 0 24 24" width="96px" height="96px"><g id="Rounded"><path d="M12,20c4.941,0,8.85-4.502,7.84-9.62c-0.608-3.081-3.073-5.57-6.148-6.205C10.504,3.517,7.554,4.773,5.765,7H3.353C5.36,3.543,9.369,1.385,13.788,2.156c4.03,0.704,7.29,3.919,8.035,7.942C23,16.444,18.136,22,12,22c-5.134,0-9.378-3.89-9.937-8.878C1.996,12.526,2.462,12,3.062,12h0c0.5,0,0.931,0.369,0.985,0.866C4.48,16.871,7.881,20,12,20z"/><path d="M13,11.586V7c0-0.552-0.448-1-1-1h0c-0.552,0-1,0.448-1,1v5c0,0.265,0.105,0.52,0.293,0.707L13.586,15c0.39,0.39,1.024,0.39,1.414,0l0,0c0.39-0.39,0.39-1.024,0-1.414L13,11.586z"/><path d="M3,9h4.5c0.128,0,0.256-0.049,0.354-0.146c0.195-0.195,0.195-0.512,0-0.707c-0.165-0.165-4.835-4.835-5-5c-0.195-0.195-0.512-0.195-0.707,0C2.049,3.244,2,3.372,2,3.5l0,0V8L3,9z"/><circle cx="3" cy="8" r="1"/></g></svg>