<svg width="38" height="30" viewBox="0 0 38 30" fill="none" xmlns="http://www.w3.org/2000/svg">
<path d="M36.8125 0.0596522C35.2844 0.78149 32.6839 2.13517 31.3771 2.39391C31.3265 2.40703 31.2853 2.42391 31.2365 2.43703C29.7122 0.933357 27.6236 0.00152989 25.3118 0.00152989C20.6527 0.00152989 16.8747 3.77946 16.8747 8.4386C16.8747 8.68421 16.8541 9.13606 16.8747 9.37605C10.8413 9.37605 6.43528 6.22809 3.13732 2.18204C2.69672 1.63832 2.22799 1.92143 2.1305 2.30766C1.91114 3.18137 1.83614 4.64192 1.83614 5.68437C1.83614 8.31111 3.88916 10.891 7.08587 12.4903C6.49715 12.6421 5.84844 12.7509 5.17347 12.7509C4.37851 12.7509 3.46356 12.5428 2.66297 12.1228C2.36674 11.9672 1.7274 12.0103 1.91676 12.7678C2.6761 15.8032 6.14092 17.935 9.23639 18.5556C8.5333 18.9699 7.03337 18.8856 6.34341 18.8856C6.08842 18.8856 5.20159 18.8256 4.62787 18.7543C4.10477 18.6906 3.30044 18.8256 3.97353 19.8455C5.41908 22.0335 8.68892 23.4078 11.5031 23.4603C8.91203 25.4927 4.67475 26.2352 0.615577 26.2352C-0.205631 26.2164 -0.164383 27.152 0.497458 27.4989C3.49168 29.07 8.39643 30 11.9006 30C25.8312 30 33.7489 19.3824 33.7489 9.37418C33.7489 9.21293 33.7451 8.87545 33.7395 8.53609C33.7395 8.50235 33.7489 8.47047 33.7489 8.43672C33.7489 8.3861 33.7339 8.33735 33.7339 8.28673C33.7283 8.03174 33.7226 7.79363 33.717 7.66989C34.8213 6.87305 36.5125 5.48937 37.3675 4.43005C37.6581 4.07007 37.4237 3.63322 37.0281 3.77009C36.01 4.12444 34.2495 4.81066 33.147 4.9419C35.3538 3.48135 36.445 2.21017 37.3825 0.798365C37.7031 0.316514 37.3018 -0.172836 36.8125 0.0596522Z" fill="white"/>
</svg>
