<?xml version="1.0" encoding="iso-8859-1"?><!-- Generator: Adobe Illustrator 22.1.0, SVG Export Plug-In . SVG Version: 6.00 Build 0)  --><svg xmlns="http://www.w3.org/2000/svg" xmlns:xlink="http://www.w3.org/1999/xlink" viewBox="0 0 24 24" width="96px" height="96px"><path d="M15,18.834c0,0.439,0.526,0.665,0.845,0.362l1.64-1.56L18.758,17h2.275c0.45,0,0.671-0.548,0.347-0.86l-5.16-4.967C15.762,10.733,15,11.057,15,11.692V18.834z"/><path d="M18.1,14l2.912,6.433c0.273,0.602,0.006,1.312-0.596,1.586l0,0c-0.61,0.277-1.329,0.001-1.596-0.614L16,14.9L18.1,14z"/><path d="M13,20v-7c0-0.552-0.448-1-1-1h-2c-0.552,0-1-0.448-1-1c0-0.556,0.454-1.007,1.012-1C10.56,10.007,11,9.548,11,9l0-1c0-0.552,0.448-1,1-1h1c1.105,0,2-0.895,2-2V4.589c2.928,1.19,5,4.061,5,7.411c0,0.012-0.002,0.023-0.002,0.035c0,0,2.002,0.579,2.002-0.035c0-5.514-4.486-10-10-10C8.738,2,5.846,3.577,4.019,6H4v0.026c-0.987,1.318-1.663,2.883-1.903,4.586c-0.64,4.539,2.039,8.751,6.229,10.608c1.268,0.562,2.498,0.78,3.678,0.779C12.556,22,13,21.545,13,20.995V20z M11,19.931C7.06,19.436,4,16.072,4,12c0-0.616,0.077-1.214,0.209-1.791L9,15v1c0,1.105,0.895,2,2,2V19.931z"/><circle cx="21" cy="12" r="1"/></svg>