<svg width="19" height="19" viewBox="0 0 19 19" fill="none" xmlns="http://www.w3.org/2000/svg">
<path d="M2.75 4H16.25C16.823 4 17.3645 4.133 17.8505 4.364C17.4805 3.2815 16.456 2.5 15.25 2.5H3.75C2.544 2.5 1.5195 3.2815 1.1495 4.364C1.6355 4.133 2.177 4 2.75 4ZM3.75 1.5H15.25C15.818 1.5 16.361 1.634 16.852 1.867C16.483 0.783 15.457 0 14.25 0H4.75C3.543 0 2.517 0.783 2.148 1.867C2.639 1.634 3.182 1.5 3.75 1.5ZM16.25 5H2.75C1.234 5 0 6.234 0 7.75V16.08C0 17.69 1.3205 19 2.943 19H16.0575C17.6795 19 19 17.69 19 16.08V7.75C19 6.234 17.766 5 16.25 5ZM6 7.25C6 7.664 5.664 8 5.25 8C4.836 8 4.5 7.664 4.5 7.25C4.5 6.836 4.836 6.5 5.25 6.5C5.664 6.5 6 6.836 6 7.25ZM3.5 7.25C3.5 7.664 3.164 8 2.75 8C2.336 8 2 7.664 2 7.25C2 6.836 2.336 6.5 2.75 6.5C3.164 6.5 3.5 6.836 3.5 7.25ZM8.25 6.5H16.25C16.664 6.5 17 6.836 17 7.25C17 7.664 16.664 8 16.25 8H8.25C7.836 8 7.5 7.664 7.5 7.25C7.5 6.836 7.836 6.5 8.25 6.5ZM16.057 17H2.943C2.423 17 2 16.5875 2 16.08V9.5H17V16.08C17 16.5875 16.577 17 16.057 17Z" fill="black"/>
</svg>
